<svg width="22" height="22" viewBox="0 0 22 22" fill="none" xmlns="http://www.w3.org/2000/svg">
<path d="M14.5 3C17.538 3 20 5.5 20 9C20 16 12.5 20 10 21.5C7.5 20 0 16 0 9C0 5.5 2.5 3 5.5 3C7.36 3 9 4 10 5C11 4 12.64 3 14.5 3ZM10.934 18.604C11.815 18.048 12.61 17.495 13.354 16.903C16.335 14.533 18 11.943 18 9C18 6.64 16.463 5 14.5 5C13.424 5 12.26 5.57 11.414 6.414L10 7.828L8.586 6.414C7.74 5.57 6.576 5 5.5 5C3.56 5 2 6.656 2 9C2 11.944 3.666 14.533 6.645 16.903C7.39 17.495 8.185 18.048 9.066 18.603C9.365 18.792 9.661 18.973 10 19.175C10.339 18.973 10.635 18.792 10.934 18.604Z" fill="white"/>
<circle cx="16" cy="6" r="5" fill="#F61010" stroke="#121420" stroke-width="2"/>
</svg>
